<?xml version="1.0" encoding="UTF-8" standalone="no"?>
<svg
   xmlns:dc="http://purl.org/dc/elements/1.1/"
   xmlns:cc="http://creativecommons.org/ns#"
   xmlns:rdf="http://www.w3.org/1999/02/22-rdf-syntax-ns#"
   xmlns:svg="http://www.w3.org/2000/svg"
   xmlns="http://www.w3.org/2000/svg"
   xmlns:sodipodi="http://sodipodi.sourceforge.net/DTD/sodipodi-0.dtd"
   xmlns:inkscape="http://www.inkscape.org/namespaces/inkscape"
   sodipodi:docname="drawing.svg"
   width="200.48055"
   height="70.494408"
   viewBox="0 0 62.947581 24.36602"
   version="1.1"
   id="svg8"
   inkscape:version="0.92.4 (unknown)">
  <sodipodi:namedview
     pagecolor="#ffffff"
     bordercolor="#666666"
     borderopacity="1"
     objecttolerance="10"
     gridtolerance="10"
     guidetolerance="10"
     inkscape:pageopacity="0"
     inkscape:pageshadow="2"
     inkscape:window-width="1920"
     inkscape:window-height="1010"
     id="namedview86"
     showgrid="false"
     inkscape:zoom="6.1023315"
     inkscape:cx="85.573348"
     inkscape:cy="50.316548"
     inkscape:window-x="0"
     inkscape:window-y="0"
     inkscape:window-maximized="1"
     inkscape:current-layer="layer1"
     fit-margin-top="10"
     fit-margin-left="15"
     fit-margin-right="15"
     fit-margin-bottom="10" />
  <defs
     id="defs2" />
  <metadata
     id="metadata5">
    <rdf:RDF>
      <cc:Work
         rdf:about="">
        <dc:format>image/svg+xml</dc:format>
        <dc:type
           rdf:resource="http://purl.org/dc/dcmitype/StillImage" />
        <dc:title></dc:title>
      </cc:Work>
    </rdf:RDF>
  </metadata>
  <g
     transform="translate(-19.155089,-31.311131)"
     id="layer1">
    <text
       id="text22"
       y="142.21873"
       x="-140.98511"
       style="font-style:normal;font-variant:normal;font-weight:normal;font-stretch:normal;font-size:10.58333302px;line-height:1.25;font-family:Zekton;-inkscape-font-specification:'Zekton, Normal';font-variant-ligatures:normal;font-variant-caps:normal;font-variant-numeric:normal;font-feature-settings:normal;text-align:start;letter-spacing:0px;word-spacing:0px;writing-mode:lr-tb;text-anchor:start;fill:#000000;fill-opacity:1;stroke:none;stroke-width:0.26458332"
       xml:space="preserve"><tspan
         style="stroke-width:0.26458332"
         y="151.9554"
         x="-140.98511"
         id="tspan20" /></text>
    <g
       aria-label="Code"
       style="font-style:normal;font-variant:normal;font-weight:normal;font-stretch:normal;font-size:10.58333302px;line-height:1.25;font-family:Zekton;-inkscape-font-specification:'Zekton, Normal';font-variant-ligatures:normal;font-variant-caps:normal;font-variant-numeric:normal;font-feature-settings:normal;text-align:start;letter-spacing:0px;word-spacing:0px;writing-mode:lr-tb;text-anchor:start;fill:#000000;fill-opacity:1;stroke:none;stroke-width:0.26458332"
       id="text34"
       transform="translate(-0.901884)">
      <path
         sodipodi:type="inkscape:offset"
         inkscape:radius="0"
         inkscape:original="M 56.410156 44.03125 L 56.410156 47.162109 C 56.210341 46.8176 55.957005 46.561849 55.650391 46.396484 C 55.347223 46.227675 54.981877 46.144531 54.554688 46.144531 C 53.855333 46.144531 53.284722 46.422363 52.84375 46.980469 C 52.406223 47.538574 52.1875 48.274088 52.1875 49.183594 C 52.1875 50.093099 52.406223 50.82666 52.84375 51.384766 C 53.284722 51.942871 53.855333 52.220703 54.554688 52.220703 C 54.981879 52.220703 55.347223 52.138023 55.650391 51.972656 C 55.957005 51.803847 56.210341 51.547635 56.410156 51.203125 L 56.410156 52.072266 L 57.361328 52.072266 L 57.361328 44.03125 L 56.410156 44.03125 z M 42.095703 44.216797 C 40.927816 44.216797 40.007731 44.574436 39.335938 45.291016 C 38.664144 46.00415 38.328125 46.980469 38.328125 48.220703 C 38.328125 49.457492 38.664144 50.435764 39.335938 51.152344 C 40.007731 51.865478 40.927816 52.220703 42.095703 52.220703 C 42.550456 52.220703 42.982151 52.159183 43.388672 52.035156 C 43.798639 51.911133 44.185601 51.72461 44.550781 51.476562 L 44.550781 50.386719 C 44.199381 50.714003 43.823459 50.959174 43.423828 51.121094 C 43.027642 51.283013 42.606066 51.363281 42.158203 51.363281 C 41.276259 51.363281 40.601346 51.094075 40.132812 50.556641 C 39.66428 50.015761 39.429688 49.237006 39.429688 48.220703 C 39.429688 47.200955 39.66428 46.424153 40.132812 45.886719 C 40.601346 45.345839 41.276259 45.074219 42.158203 45.074219 C 42.606066 45.074219 43.027642 45.154489 43.423828 45.316406 C 43.823459 45.478326 44.199381 45.723497 44.550781 46.050781 L 44.550781 44.951172 C 44.192491 44.706571 43.808404 44.522922 43.398438 44.402344 C 42.991915 44.27832 42.557346 44.216797 42.095703 44.216797 z M 48.375 46.144531 C 47.544732 46.144531 46.893853 46.413737 46.421875 46.951172 C 45.953342 47.488607 45.71875 48.232747 45.71875 49.183594 C 45.71875 50.130995 45.953342 50.875136 46.421875 51.416016 C 46.893853 51.95345 47.544732 52.220703 48.375 52.220703 C 49.201823 52.220703 49.850288 51.95345 50.322266 51.416016 C 50.794244 50.875136 51.03125 50.130995 51.03125 49.183594 C 51.03125 48.232747 50.794244 47.488607 50.322266 46.951172 C 49.850288 46.413737 49.201823 46.144531 48.375 46.144531 z M 61.744141 46.144531 C 60.875977 46.144531 60.185194 46.422363 59.671875 46.980469 C 59.162001 47.535129 58.90625 48.286974 58.90625 49.234375 C 58.90625 50.15077 59.175456 50.87858 59.712891 51.416016 C 60.253771 51.95345 60.984917 52.220703 61.908203 52.220703 C 62.276828 52.220703 62.639757 52.183213 62.998047 52.107422 C 63.356337 52.031632 63.707763 51.922038 64.048828 51.777344 L 64.048828 50.876953 C 63.711209 51.056098 63.3699 51.191677 63.025391 51.28125 C 62.684326 51.37082 62.330024 51.416016 61.964844 51.416016 C 61.334391 51.416016 60.843126 51.245362 60.488281 50.904297 C 60.13688 50.559788 59.939775 50.058865 59.898438 49.404297 L 64.269531 49.404297 L 64.269531 48.939453 C 64.269531 48.078179 64.042643 47.397974 63.587891 46.898438 C 63.136583 46.395454 62.522732 46.144531 61.744141 46.144531 z M 54.787109 46.939453 C 55.290093 46.939453 55.687176 47.139432 55.976562 47.539062 C 56.265951 47.935249 56.410156 48.484239 56.410156 49.183594 C 56.410156 49.882948 56.265951 50.4324 55.976562 50.832031 C 55.687174 51.228217 55.290093 51.425781 54.787109 51.425781 C 54.284125 51.425781 53.888997 51.228217 53.599609 50.832031 C 53.313667 50.4324 53.169922 49.882948 53.169922 49.183594 C 53.169922 48.484239 53.313667 47.935249 53.599609 47.539062 C 53.888997 47.139432 54.284125 46.939453 54.787109 46.939453 z M 48.375 46.951172 C 48.881429 46.951172 49.281846 47.151612 49.578125 47.554688 C 49.874403 47.954318 50.023438 48.49802 50.023438 49.183594 C 50.023438 49.872613 49.874403 50.416776 49.578125 50.816406 C 49.281846 51.216038 48.881429 51.416016 48.375 51.416016 C 47.861681 51.416016 47.456434 51.216498 47.160156 50.820312 C 46.867323 50.420682 46.720703 49.876058 46.720703 49.183594 C 46.720703 48.49113 46.869738 47.945014 47.166016 47.548828 C 47.462294 47.149197 47.865126 46.951172 48.375 46.951172 z M 61.753906 46.951172 C 62.22244 46.951172 62.598361 47.105957 62.880859 47.416016 C 63.166805 47.726074 63.313426 48.139947 63.320312 48.660156 L 59.929688 48.666016 C 59.977917 48.12169 60.159615 47.700114 60.476562 47.400391 C 60.796957 47.100667 61.223362 46.951172 61.753906 46.951172 z "
         style="stroke-width:0.26458332"
         id="path94"
         d="m 56.410156,44.03125 v 3.130859 c -0.199815,-0.344509 -0.453151,-0.60026 -0.759765,-0.765625 -0.303168,-0.168809 -0.668514,-0.251953 -1.095703,-0.251953 -0.699355,0 -1.269966,0.277832 -1.710938,0.835938 -0.437527,0.558105 -0.65625,1.293619 -0.65625,2.203125 0,0.909505 0.218723,1.643066 0.65625,2.201172 0.440972,0.558105 1.011583,0.835937 1.710938,0.835937 0.427191,0 0.792535,-0.08268 1.095703,-0.248047 0.306614,-0.168809 0.55995,-0.425021 0.759765,-0.769531 v 0.869141 h 0.951172 V 44.03125 Z m -14.314453,0.185547 c -1.167887,0 -2.087972,0.357639 -2.759765,1.074219 -0.671794,0.713134 -1.007813,1.689453 -1.007813,2.929687 0,1.236789 0.336019,2.215061 1.007813,2.931641 0.671793,0.713134 1.591878,1.068359 2.759765,1.068359 0.454753,0 0.886448,-0.06152 1.292969,-0.185547 0.409967,-0.124023 0.796929,-0.310546 1.162109,-0.558594 v -1.089843 c -0.3514,0.327284 -0.727322,0.572455 -1.126953,0.734375 -0.396186,0.161919 -0.817762,0.242187 -1.265625,0.242187 -0.881944,0 -1.556857,-0.269206 -2.025391,-0.80664 -0.468532,-0.54088 -0.703124,-1.319635 -0.703124,-2.335938 0,-1.019748 0.234592,-1.79655 0.703124,-2.333984 0.468534,-0.54088 1.143447,-0.8125 2.025391,-0.8125 0.447863,0 0.869439,0.08027 1.265625,0.242187 0.399631,0.16192 0.775553,0.407091 1.126953,0.734375 v -1.099609 c -0.35829,-0.244601 -0.742377,-0.42825 -1.152343,-0.548828 -0.406523,-0.124024 -0.841092,-0.185547 -1.302735,-0.185547 z M 48.375,46.144531 c -0.830268,0 -1.481147,0.269206 -1.953125,0.806641 -0.468533,0.537435 -0.703125,1.281575 -0.703125,2.232422 0,0.947401 0.234592,1.691542 0.703125,2.232422 0.471978,0.537434 1.122857,0.804687 1.953125,0.804687 0.826823,0 1.475288,-0.267253 1.947266,-0.804687 0.471978,-0.54088 0.708984,-1.285021 0.708984,-2.232422 0,-0.950847 -0.237006,-1.694987 -0.708984,-2.232422 C 49.850288,46.413737 49.201823,46.144531 48.375,46.144531 Z m 13.369141,0 c -0.868164,0 -1.558947,0.277832 -2.072266,0.835938 -0.509874,0.55466 -0.765625,1.306505 -0.765625,2.253906 0,0.916395 0.269206,1.644205 0.806641,2.181641 0.54088,0.537434 1.272026,0.804687 2.195312,0.804687 0.368625,0 0.731554,-0.03749 1.089844,-0.113281 0.35829,-0.07579 0.709716,-0.185384 1.050781,-0.330078 v -0.900391 c -0.337619,0.179145 -0.678928,0.314724 -1.023437,0.404297 -0.341065,0.08957 -0.695367,0.134766 -1.060547,0.134766 -0.630453,0 -1.121718,-0.170654 -1.476563,-0.511719 -0.351401,-0.344509 -0.548506,-0.845432 -0.589843,-1.5 h 4.371093 v -0.464844 c 0,-0.861274 -0.226888,-1.541479 -0.68164,-2.041015 -0.451308,-0.502984 -1.065159,-0.753907 -1.84375,-0.753907 z m -6.957032,0.794922 c 0.502984,0 0.900067,0.199979 1.189453,0.599609 0.289389,0.396187 0.433594,0.945177 0.433594,1.644532 0,0.699354 -0.144205,1.248806 -0.433594,1.648437 -0.289388,0.396186 -0.686469,0.59375 -1.189453,0.59375 -0.502984,0 -0.898112,-0.197564 -1.1875,-0.59375 -0.285942,-0.399631 -0.429687,-0.949083 -0.429687,-1.648437 0,-0.699355 0.143745,-1.248345 0.429687,-1.644532 0.289388,-0.39963 0.684516,-0.599609 1.1875,-0.599609 z M 48.375,46.951172 c 0.506429,0 0.906846,0.20044 1.203125,0.603516 0.296278,0.39963 0.445313,0.943332 0.445313,1.628906 0,0.689019 -0.149035,1.233182 -0.445313,1.632812 -0.296279,0.399632 -0.696696,0.59961 -1.203125,0.59961 -0.513319,0 -0.918566,-0.199518 -1.214844,-0.595704 -0.292833,-0.39963 -0.439453,-0.944254 -0.439453,-1.636718 0,-0.692464 0.149035,-1.23858 0.445313,-1.634766 0.296278,-0.399631 0.69911,-0.597656 1.208984,-0.597656 z m 13.378906,0 c 0.468534,0 0.844455,0.154785 1.126953,0.464844 0.285946,0.310058 0.432567,0.723931 0.439453,1.24414 l -3.390624,0.0059 c 0.04823,-0.544326 0.229927,-0.965902 0.546874,-1.265625 0.320395,-0.299724 0.7468,-0.449219 1.277344,-0.449219 z" />
    </g>
    <path
       sodipodi:type="inkscape:offset"
       inkscape:radius="0"
       inkscape:original="M 22.015625 34.90625 L 22.015625 42.621094 L 23.060547 42.621094 L 23.060547 38.9375 L 26.119141 38.9375 L 26.119141 38.058594 L 23.060547 38.058594 L 23.060547 35.785156 L 26.451172 35.785156 L 26.451172 34.90625 L 22.015625 34.90625 z M 36.630859 36.722656 C 36.015763 36.829395 35.442148 37.179504 35.132812 37.734375 L 35.132812 36.833984 L 34.175781 36.833984 L 34.175781 42.621094 L 35.132812 42.621094 C 35.141832 41.429095 35.113887 40.236059 35.148438 39.044922 C 35.182225 38.235517 35.864024 37.502758 36.695312 37.523438 C 37.439875 37.409967 38.043634 38.061747 38.052734 38.775391 C 38.096764 40.056506 38.060866 41.338828 38.072266 42.621094 L 39.023438 42.621094 L 39.023438 39.128906 C 39.02207 38.437712 38.901467 37.669078 38.376953 37.169922 C 37.902522 36.752016 37.245955 36.615918 36.630859 36.722656 z M 27.396484 36.833984 L 27.396484 40.337891 C 27.394388 41.088723 27.554327 41.952634 28.201172 42.423828 C 29.184727 43.093843 30.700926 42.78936 31.292969 41.732422 L 31.292969 42.621094 L 32.242188 42.621094 L 32.242188 36.833984 L 31.292969 36.833984 C 31.288669 37.996526 31.301066 39.159973 31.285156 40.322266 C 31.284611 41.16488 30.594361 41.965959 29.722656 41.943359 C 28.975188 42.05768 28.376088 41.402244 28.367188 40.6875 C 28.323228 39.404552 28.359006 38.118082 28.347656 36.833984 L 27.396484 36.833984 z "
       style="font-style:normal;font-variant:normal;font-weight:normal;font-stretch:normal;font-size:10.58333302px;line-height:1.25;font-family:Zekton;-inkscape-font-specification:'Zekton, Normal';font-variant-ligatures:normal;font-variant-caps:normal;font-variant-numeric:normal;font-feature-settings:normal;text-align:start;letter-spacing:0px;word-spacing:0px;writing-mode:lr-tb;text-anchor:start;fill:#000000;fill-opacity:1;stroke:none;stroke-width:0.26458332"
       id="text12"
       d="m 22.015625,34.90625 v 7.714844 h 1.044922 V 38.9375 h 3.058594 v -0.878906 h -3.058594 v -2.273438 h 3.390625 V 34.90625 Z m 14.615234,1.816406 c -0.615096,0.106739 -1.188711,0.456848 -1.498047,1.011719 v -0.900391 h -0.957031 v 5.78711 h 0.957031 c 0.009,-1.191999 -0.01893,-2.385035 0.01563,-3.576172 0.03379,-0.809405 0.715586,-1.542164 1.546874,-1.521484 0.744563,-0.113471 1.348322,0.538309 1.357422,1.251953 0.04403,1.281115 0.0081,2.563437 0.01953,3.845703 h 0.951172 v -3.492188 c -0.0014,-0.691194 -0.121971,-1.459828 -0.646485,-1.958984 -0.474431,-0.417906 -1.130998,-0.554004 -1.746094,-0.447266 z m -9.234375,0.111328 v 3.503907 c -0.0021,0.750832 0.157843,1.614743 0.804688,2.085937 0.983555,0.670015 2.499754,0.365532 3.091797,-0.691406 v 0.888672 h 0.949219 v -5.78711 h -0.949219 c -0.0043,1.162542 0.0081,2.325989 -0.0078,3.488282 -5.45e-4,0.842614 -0.690795,1.643693 -1.5625,1.621093 -0.747468,0.114321 -1.346568,-0.541115 -1.355468,-1.255859 -0.04396,-1.282948 -0.0082,-2.569418 -0.01953,-3.853516 z"
       transform="translate(-0.69128945)" />
    <g
       aria-label="2"
       style="font-style:normal;font-variant:normal;font-weight:normal;font-stretch:normal;font-size:10.58333302px;line-height:1.25;font-family:Zekton;-inkscape-font-specification:'Zekton, Normal';font-variant-ligatures:normal;font-variant-caps:normal;font-variant-numeric:normal;font-feature-settings:normal;text-align:start;letter-spacing:0px;word-spacing:0px;writing-mode:lr-tb;text-anchor:start;fill:#000000;fill-opacity:1;stroke:none;stroke-width:0.26458332"
       id="text150"
       transform="translate(-10.369341)">
      <path
         sodipodi:type="inkscape:offset"
         inkscape:radius="0"
         inkscape:original="M 55.734375 34.767578 C 55.431206 34.767578 55.097602 34.810357 54.732422 34.896484 C 54.367242 34.982612 53.974989 35.110487 53.554688 35.279297 L 53.554688 36.332031 C 53.968099 36.10121 54.355062 35.930094 54.716797 35.816406 C 55.081977 35.702718 55.428575 35.646484 55.755859 35.646484 C 56.217502 35.646484 56.59101 35.774821 56.876953 36.033203 C 57.166341 36.291585 57.310547 36.62519 57.310547 37.035156 C 57.310547 37.286648 57.243734 37.544814 57.109375 37.806641 C 56.978461 38.065023 56.746283 38.380344 56.412109 38.755859 C 56.236409 38.955675 55.806668 39.403239 55.121094 40.095703 C 54.438965 40.784722 53.898139 41.334175 53.501953 41.744141 L 53.501953 42.621094 L 58.402344 42.621094 L 58.402344 41.744141 L 54.757812 41.744141 C 55.598416 40.886312 56.251248 40.219563 56.712891 39.744141 C 57.174533 39.265272 57.447076 38.974908 57.533203 38.875 C 57.846707 38.489149 58.062554 38.155544 58.179688 37.873047 C 58.300265 37.587104 58.361328 37.285699 58.361328 36.96875 C 58.361328 36.300401 58.121907 35.766818 57.646484 35.367188 C 57.171061 34.967556 56.533637 34.767578 55.734375 34.767578 z "
         id="path163"
         d="m 55.734375,34.767578 c -0.303169,0 -0.636773,0.04278 -1.001953,0.128906 -0.36518,0.08613 -0.757433,0.214003 -1.177734,0.382813 v 1.052734 c 0.413411,-0.230821 0.800374,-0.401937 1.162109,-0.515625 0.36518,-0.113688 0.711778,-0.169922 1.039062,-0.169922 0.461643,0 0.835151,0.128337 1.121094,0.386719 0.289388,0.258382 0.433594,0.591987 0.433594,1.001953 0,0.251492 -0.06681,0.509658 -0.201172,0.771485 -0.130914,0.258382 -0.363092,0.573703 -0.697266,0.949218 -0.1757,0.199816 -0.605441,0.64738 -1.291015,1.339844 -0.682129,0.689019 -1.222955,1.238472 -1.619141,1.648438 v 0.876953 h 4.900391 v -0.876953 h -3.644532 c 0.840604,-0.857829 1.493436,-1.524578 1.955079,-2 0.461642,-0.478869 0.734185,-0.769233 0.820312,-0.869141 0.313504,-0.385851 0.529351,-0.719456 0.646485,-1.001953 0.120577,-0.285943 0.18164,-0.587348 0.18164,-0.904297 0,-0.668349 -0.239421,-1.201932 -0.714844,-1.601562 -0.475423,-0.399632 -1.112847,-0.59961 -1.912109,-0.59961 z"
         style="opacity:1;fill:#41a62a;fill-opacity:1" />
    </g>
    <g
       aria-label="Learn"
       style="font-style:normal;font-variant:normal;font-weight:normal;font-stretch:normal;font-size:10.58333302px;line-height:1.25;font-family:Zekton;-inkscape-font-specification:'Zekton, Normal';font-variant-ligatures:normal;font-variant-caps:normal;font-variant-numeric:normal;font-feature-settings:normal;text-align:start;letter-spacing:0px;word-spacing:0px;writing-mode:lr-tb;text-anchor:start;fill:#000000;fill-opacity:1;stroke:none;stroke-width:0.26458332"
       id="text154"
       transform="translate(-11.751919)">
      <path
         sodipodi:type="inkscape:offset"
         inkscape:radius="0"
         inkscape:original="M 64.349609 34.90625 L 64.349609 42.621094 L 69.150391 42.621094 L 69.150391 41.744141 L 65.394531 41.744141 L 65.394531 34.90625 L 64.349609 34.90625 z M 72.4375 36.695312 C 71.569336 36.695312 70.878554 36.973145 70.365234 37.53125 C 69.85536 38.085911 69.599609 38.837755 69.599609 39.785156 C 69.599609 40.701552 69.868815 41.427409 70.40625 41.964844 C 70.94713 42.502278 71.678277 42.771484 72.601562 42.771484 C 72.970188 42.771484 73.335069 42.733995 73.693359 42.658203 C 74.051649 42.582411 74.401123 42.472819 74.742188 42.328125 L 74.742188 41.427734 C 74.404568 41.60688 74.063259 41.742459 73.71875 41.832031 C 73.377685 41.921604 73.025336 41.964844 72.660156 41.964844 C 72.029704 41.964844 71.536485 41.796143 71.181641 41.455078 C 70.83024 41.110569 70.633137 40.609646 70.591797 39.955078 L 74.964844 39.955078 L 74.964844 39.490234 C 74.964844 38.62896 74.736003 37.948757 74.28125 37.449219 C 73.829943 36.946235 73.216092 36.695312 72.4375 36.695312 z M 78.554688 36.695312 C 78.244629 36.695312 77.926893 36.729926 77.599609 36.798828 C 77.272325 36.864285 76.933892 36.963298 76.585938 37.097656 L 76.585938 37.976562 C 76.875326 37.818088 77.176731 37.698378 77.490234 37.619141 C 77.803738 37.539903 78.126302 37.5 78.457031 37.5 C 78.977241 37.5 79.380073 37.622125 79.666016 37.863281 C 79.955404 38.100993 80.101562 38.437473 80.101562 38.875 L 80.101562 38.96875 L 78.767578 38.96875 C 77.902859 38.96875 77.25198 39.134114 76.814453 39.464844 C 76.380371 39.795573 76.162109 40.286377 76.162109 40.9375 C 76.162109 41.495605 76.337592 41.941216 76.685547 42.275391 C 77.036947 42.606119 77.509006 42.771484 78.101562 42.771484 C 78.570096 42.771484 78.965224 42.688801 79.289062 42.523438 C 79.612902 42.354627 79.884522 42.095541 80.101562 41.744141 L 80.101562 42.621094 L 81.050781 42.621094 L 81.050781 39.320312 C 81.050781 38.438368 80.845052 37.779785 80.431641 37.345703 C 80.018229 36.911621 79.391846 36.695312 78.554688 36.695312 z M 85.882812 36.695312 C 85.424615 36.695313 85.035238 36.78087 84.714844 36.953125 C 84.39445 37.121935 84.135363 37.382976 83.935547 37.734375 L 83.935547 36.833984 L 82.978516 36.833984 L 82.978516 42.621094 L 83.935547 42.621094 L 83.935547 39.572266 C 83.935547 38.917698 84.077338 38.416314 84.363281 38.068359 C 84.652669 37.71696 85.066081 37.542969 85.603516 37.542969 C 85.7551 37.542969 85.893555 37.556884 86.017578 37.587891 C 86.145047 37.61545 86.262343 37.660643 86.369141 37.722656 L 86.363281 36.746094 C 86.266819 36.728867 86.178846 36.717824 86.099609 36.710938 C 86.020375 36.700604 85.948272 36.695312 85.882812 36.695312 z M 89.980469 36.695312 C 89.577393 36.695313 89.222168 36.78087 88.912109 36.953125 C 88.605496 37.12538 88.338705 37.38642 88.111328 37.734375 L 88.111328 36.833984 L 87.154297 36.833984 L 87.154297 42.621094 L 88.111328 42.621094 L 88.111328 39.351562 C 88.111328 38.786566 88.258409 38.339003 88.554688 38.011719 C 88.850965 37.684435 89.256212 37.521484 89.769531 37.521484 C 90.196723 37.521484 90.516873 37.657525 90.730469 37.929688 C 90.944065 38.20185 91.050781 38.612386 91.050781 39.160156 L 91.050781 42.621094 L 92.001953 42.621094 L 92.001953 39.128906 C 92.001953 38.329644 91.831298 37.72442 91.490234 37.314453 C 91.14917 36.901042 90.645372 36.695312 89.980469 36.695312 z M 72.447266 37.5 C 72.915798 37.5 73.291721 37.656738 73.574219 37.966797 C 73.860158 38.276856 74.006779 38.690728 74.013672 39.210938 L 70.623047 39.216797 C 70.671278 38.672472 70.854926 38.250895 71.171875 37.951172 C 71.492269 37.651449 71.916721 37.5 72.447266 37.5 z M 79.154297 39.712891 L 80.101562 39.712891 L 80.101562 39.923828 C 80.101562 40.543945 79.939535 41.042453 79.619141 41.417969 C 79.302192 41.790039 78.880615 41.976562 78.353516 41.976562 C 77.97111 41.976562 77.669243 41.878011 77.445312 41.681641 C 77.224826 41.481825 77.113281 41.212619 77.113281 40.875 C 77.113281 40.451253 77.262315 40.152262 77.558594 39.976562 C 77.854872 39.800863 78.386041 39.712891 79.154297 39.712891 z "
         id="path181"
         d="m 64.349609,34.90625 v 7.714844 h 4.800782 v -0.876953 h -3.75586 V 34.90625 Z m 8.087891,1.789062 c -0.868164,0 -1.558946,0.277833 -2.072266,0.835938 -0.509874,0.554661 -0.765625,1.306505 -0.765625,2.253906 0,0.916396 0.269206,1.642253 0.806641,2.179688 0.54088,0.537434 1.272027,0.80664 2.195312,0.80664 0.368626,0 0.733507,-0.03749 1.091797,-0.113281 0.35829,-0.07579 0.707764,-0.185384 1.048829,-0.330078 v -0.900391 c -0.33762,0.179146 -0.678929,0.314725 -1.023438,0.404297 -0.341065,0.08957 -0.693414,0.132813 -1.058594,0.132813 -0.630452,0 -1.123671,-0.168701 -1.478515,-0.509766 -0.351401,-0.344509 -0.548504,-0.845432 -0.589844,-1.5 h 4.373047 v -0.464844 c 0,-0.861274 -0.228841,-1.541477 -0.683594,-2.041015 -0.451307,-0.502984 -1.065158,-0.753907 -1.84375,-0.753907 z m 6.117188,0 c -0.310059,0 -0.627795,0.03461 -0.955079,0.103516 -0.327284,0.06546 -0.665717,0.16447 -1.013671,0.298828 v 0.878906 c 0.289388,-0.158474 0.590793,-0.278184 0.904296,-0.357421 C 77.803738,37.539903 78.126302,37.5 78.457031,37.5 c 0.52021,0 0.923042,0.122125 1.208985,0.363281 0.289388,0.237712 0.435546,0.574192 0.435546,1.011719 v 0.09375 h -1.333984 c -0.864719,0 -1.515598,0.165364 -1.953125,0.496094 -0.434082,0.330729 -0.652344,0.821533 -0.652344,1.472656 0,0.558105 0.175483,1.003716 0.523438,1.337891 0.3514,0.330728 0.823459,0.496093 1.416015,0.496093 0.468534,0 0.863662,-0.08268 1.1875,-0.248046 0.32384,-0.168811 0.59546,-0.427897 0.8125,-0.779297 v 0.876953 h 0.949219 v -3.300782 c 0,-0.881944 -0.205729,-1.540527 -0.61914,-1.974609 -0.413412,-0.434082 -1.039795,-0.650391 -1.876953,-0.650391 z m 7.328124,0 c -0.458197,10e-7 -0.847574,0.08556 -1.167968,0.257813 -0.320394,0.16881 -0.579481,0.429851 -0.779297,0.78125 v -0.900391 h -0.957031 v 5.78711 h 0.957031 v -3.048828 c 0,-0.654568 0.141791,-1.155952 0.427734,-1.503907 0.289388,-0.351399 0.7028,-0.52539 1.240235,-0.52539 0.151584,0 0.290039,0.01391 0.414062,0.04492 0.127469,0.02756 0.244765,0.07275 0.351563,0.134765 l -0.0059,-0.976562 c -0.09646,-0.01723 -0.184435,-0.02827 -0.263672,-0.03516 -0.07923,-0.01033 -0.151337,-0.01563 -0.216797,-0.01563 z m 4.097657,0 c -0.403076,10e-7 -0.758301,0.08556 -1.06836,0.257813 -0.306613,0.172255 -0.573404,0.433295 -0.800781,0.78125 v -0.900391 h -0.957031 v 5.78711 h 0.957031 v -3.269532 c 0,-0.564996 0.147081,-1.012559 0.44336,-1.339843 0.296277,-0.327284 0.701524,-0.490235 1.214843,-0.490235 0.427192,0 0.747342,0.136041 0.960938,0.408204 0.213596,0.272162 0.320312,0.682698 0.320312,1.230468 v 3.460938 h 0.951172 v -3.492188 c 0,-0.799262 -0.170655,-1.404486 -0.511719,-1.814453 -0.341064,-0.413411 -0.844862,-0.619141 -1.509765,-0.619141 z M 72.447266,37.5 c 0.468532,0 0.844455,0.156738 1.126953,0.466797 0.285939,0.310059 0.43256,0.723931 0.439453,1.244141 l -3.390625,0.0059 c 0.04823,-0.544325 0.231879,-0.965902 0.548828,-1.265625 C 71.492269,37.651449 71.916721,37.5 72.447266,37.5 Z m 6.707031,2.212891 h 0.947265 v 0.210937 c 0,0.620117 -0.162027,1.118625 -0.482421,1.494141 -0.316949,0.37207 -0.738526,0.558593 -1.265625,0.558593 -0.382406,0 -0.684273,-0.09855 -0.908204,-0.294921 -0.220486,-0.199816 -0.332031,-0.469022 -0.332031,-0.806641 0,-0.423747 0.149034,-0.722738 0.445313,-0.898438 0.296278,-0.175699 0.827447,-0.263671 1.595703,-0.263671 z" />
    </g>
  </g>
</svg>
